# xmcd
#
# Track frame offsets:
#	150
#	17817
#	35637
#	53622
#	71905
#	92240
#	115237
#	131892
#	150220
#	161382
#	172215
#	184260
#	196932
#	209450
#	224822
#	243507
#	255090
#	273500
#	282027
#	297902
#
# Disc length: 4180 seconds
#
# Revision: 1
# Processed by: cddbd v1.5.2PL0 Copyright (c) Steve Scherf et al.
# Submitted via: audiograbber 1.83.01
#
DISCID=31105214
DTITLE=Red Norvo - The Modern Red Norvo [CD1]
DYEAR=1900
DGENRE=Jazz
TTITLE0=Congo Blues (take C - original master)
TTITLE1=Congo Blues (take B - alternate)
TTITLE2=Hallelujah (take F - original master)
TTITLE3=Hallelujah (take E - alternate)
TTITLE4=Slam Slam Blues (take B - original master)
TTITLE5=Slam Slam Blues (take A - alternate)
TTITLE6=Get Happy (take D - original master)
TTITLE7=Get Happy (take B - alternate)
TTITLE8=Swedish Pastry (take 2)
TTITLE9=Swedish Pastry (take 1)
TTITLE10=Cheek to Cheek (original release)
TTITLE11=Cheek to Cheek (alternate)
TTITLE12=Cheek to Cheek (take 5)
TTITLE13=Night and Day (original release)
TTITLE14=Night and Day (alternate)
TTITLE15=Time and Tide
TTITLE16=Prelude to a Kiss
TTITLE17='Deed I Do
TTITLE18=Mood Indigo
TTITLE19=Mood Indigo (alternate)
EXTD=
EXTT0=
EXTT1=
EXTT2=
EXTT3=
EXTT4=
EXTT5=
EXTT6=
EXTT7=
EXTT8=
EXTT9=
EXTT10=
EXTT11=
EXTT12=
EXTT13=
EXTT14=
EXTT15=
EXTT16=
EXTT17=
EXTT18=
EXTT19=
PLAYORDER=
